Coordinates
version=1
nRows=19
nColumns=63
inDegrees=yes

Units are S.I. units (second, meters, Newtons, ...)
If the header above contains a line with 'inDegrees', this indicates whether rotational values are in degrees (yes) or radians (no).

endheader
time	pelvis_tilt	pelvis_list	pelvis_rotation	pelvis_tx	pelvis_ty	pelvis_tz	hip_flexion_r	hip_adduction_r	hip_rotation_r	knee_angle_r	knee_angle_r_beta	ankle_angle_r	subtalar_angle_r	mtp_angle_r	hip_flexion_l	hip_adduction_l	hip_rotation_l	knee_angle_l	knee_angle_l_beta	ankle_angle_l	subtalar_angle_l	mtp_angle_l	L5_S1_Flex_Ext	L5_S1_Lat_Bending	L5_S1_axial_rotation	L4_L5_Flex_Ext	L4_L5_Lat_Bending	L4_L5_axial_rotation	L3_L4_Flex_Ext	L3_L4_Lat_Bending	L3_L4_axial_rotation	L2_L3_Flex_Ext	L2_L3_Lat_Bending	L2_L3_axial_rotation	L1_L2_Flex_Ext	L1_L2_Lat_Bending	L1_L2_axial_rotation	L1_T12_Flex_Ext	L1_T12_Lat_Bending	L1_T12_axial_rotation	Abs_r3	Abs_r2	Abs_r1	Abs_t1	Abs_t2	neck_flexion	neck_bending	neck_rotation	arm_flex_r	arm_add_r	arm_rot_r	elbow_flex_r	pro_sup_r	wrist_flex_r	wrist_dev_r	arm_flex_l	arm_add_l	arm_rot_l	elbow_flex_l	pro_sup_l	wrist_flex_l	wrist_dev_l
1.067797	2.337191	-3.934369	99.625853	0.032591	1.008342	0.691132	-1.057479	1.059539	10.287399	1.509490	0.026346	23.354208	-12.223910	0.000000	3.456211	0.468351	0.012906	8.540324	0.149057	30.871556	0.610565	0.000000	0.143696	-0.500373	-1.375837	0.266857	-0.665497	-1.461826	0.236078	-1.216608	-1.461826	0.164230	-1.216608	-1.203857	0.133436	-1.020361	-1.117867	0.082108	-0.775078	-1.031877	1.026404	-5.660323	-7.651990	0.000000	0.000000	19.857142	11.556636	3.648343	21.031308	-11.505028	46.182741	105.432618	63.001637	3.422643	6.386637	-12.198412	-17.739730	-1.128700	119.898509	89.246290	-17.324044	-16.320431
1.084746	2.275572	-3.966907	99.620747	0.032884	1.008543	0.690025	-1.174435	0.965015	10.710041	1.426257	0.024893	23.204755	-12.492353	0.000000	3.355789	0.514382	-0.169935	8.371080	0.146103	30.835236	0.816443	0.000000	0.143639	-0.525818	-1.307377	0.266753	-0.699338	-1.389088	0.235985	-1.278475	-1.389088	0.164165	-1.278475	-1.143955	0.133384	-1.072249	-1.062244	0.082076	-0.814493	-0.980533	1.026002	-5.948162	-7.271237	0.000000	0.000000	19.895367	11.480793	2.791112	21.771616	-10.033038	47.527294	104.676882	65.437920	2.605619	6.122085	-13.180835	-17.746456	-2.895833	120.549582	89.236064	-18.689104	-18.587323
1.101695	2.240130	-3.992266	99.594564	0.033055	1.008675	0.689067	-1.266834	0.892431	11.151473	1.361545	0.023763	23.128608	-12.711849	0.000000	3.266260	0.536322	-0.351489	8.209670	0.143286	30.859499	1.003922	0.000000	0.143528	-0.543066	-1.245088	0.266546	-0.722278	-1.322906	0.235802	-1.320411	-1.322906	0.164038	-1.320411	-1.089452	0.133280	-1.107420	-1.011634	0.082012	-0.841209	-0.933816	1.025207	-6.143271	-6.924807	0.000000	0.000000	20.004694	11.466703	2.077881	22.551291	-8.553429	48.721698	103.814153	68.146180	1.816383	5.780626	-13.939647	-17.639577	-4.814546	121.134850	89.149825	-19.060642	-20.198929
1.118644	2.230620	-4.008713	99.564999	0.033068	1.008763	0.688275	-1.339492	0.841297	11.508925	1.307070	0.022813	23.120325	-12.788664	0.000000	3.188511	0.535935	-0.517170	8.055288	0.140591	30.938997	1.175896	0.000000	0.144102	-0.551259	-1.189006	0.267612	-0.733174	-1.263319	0.236745	-1.340330	-1.263319	0.164694	-1.340330	-1.040380	0.133813	-1.124127	-0.966067	0.082340	-0.853900	-0.891754	1.029307	-6.235948	-6.612894	0.000000	0.000000	20.137205	11.504716	1.559595	23.272842	-7.077620	49.667819	102.906574	71.155429	1.139760	5.409340	-14.428336	-17.423274	-6.759016	121.590567	89.015995	-18.634309	-21.367834
1.135593	2.238537	-4.007079	99.548803	0.032922	1.008811	0.687685	-1.395533	0.807656	11.800309	1.273992	0.022235	23.169007	-12.797792	0.000000	3.117518	0.523142	-0.640073	7.913883	0.138123	31.064525	1.310879	0.000000	0.143456	-0.552295	-1.138071	0.266412	-0.734552	-1.209201	0.235684	-1.342849	-1.209201	0.163956	-1.342849	-0.995813	0.133213	-1.126239	-0.924683	0.081971	-0.855504	-0.853554	1.024693	-6.247668	-6.329612	0.000000	0.000000	20.288141	11.576992	1.173804	23.869863	-5.661484	50.336310	102.081002	73.793258	0.589625	5.292083	-14.627803	-17.135208	-8.660861	122.024939	88.889149	-17.454477	-21.638513
1.152542	2.284570	-3.990443	99.532874	0.032620	1.008841	0.687330	-1.430137	0.813026	12.066326	1.247379	0.021771	23.226832	-12.797170	0.000000	3.066287	0.474899	-0.767324	7.801152	0.136156	31.235999	1.452114	0.000000	0.143365	-0.543494	-1.086125	0.266243	-0.722847	-1.154008	0.235534	-1.321452	-1.154008	0.163852	-1.321452	-0.950359	0.133129	-1.108293	-0.882476	0.081919	-0.841872	-0.814594	1.024041	-6.148114	-6.040700	0.000000	0.000000	20.399951	11.700026	0.945062	24.265934	-4.364038	50.665004	101.417046	76.049268	0.063604	5.446512	-14.560058	-16.851605	-10.245197	122.373249	88.801076	-16.312563	-21.566956
1.169492	2.367646	-3.958880	99.513000	0.032175	1.008877	0.687190	-1.445170	0.855107	12.271497	1.219079	0.021277	23.301562	-12.747752	0.000000	3.027760	0.395313	-0.884564	7.708373	0.134536	31.427089	1.570326	0.000000	0.143364	-0.525625	-1.033844	0.266242	-0.699081	-1.098460	0.235533	-1.278004	-1.098460	0.163851	-1.278004	-0.904614	0.133128	-1.071854	-0.839999	0.081918	-0.814193	-0.775383	1.024037	-5.945972	-5.749933	0.000000	0.000000	20.477396	11.855802	0.819214	24.381264	-3.187911	50.581331	100.973645	77.808698	-0.559979	5.904946	-14.222419	-16.577522	-11.397603	122.626363	88.752883	-15.523564	-21.269349
1.186441	2.490099	-3.917244	99.492591	0.031570	1.008939	0.687249	-1.437047	0.933687	12.427095	1.182740	0.020643	23.396441	-12.667844	0.000000	3.004184	0.288069	-0.927029	7.632802	0.133218	31.611863	1.588858	0.000000	0.144267	-0.498795	-0.983832	0.267917	-0.663398	-1.045322	0.237015	-1.212771	-1.045322	0.164882	-1.212771	-0.860853	0.133966	-1.017143	-0.799364	0.082434	-0.772634	-0.737874	1.030481	-5.642472	-5.471779	0.000000	0.000000	20.495930	12.041593	0.798215	24.184437	-2.125944	50.021220	100.748879	79.185643	-1.310802	6.572912	-13.596323	-16.270694	-12.113067	122.765776	88.755979	-14.998316	-20.677585
1.203390	2.646127	-3.872539	99.469980	0.030842	1.009035	0.687492	-1.402853	1.043765	12.555765	1.132759	0.019770	23.517700	-12.582849	0.000000	2.994495	0.159597	-0.885787	7.563920	0.132015	31.780239	1.492693	0.000000	0.146108	-0.464894	-0.936435	0.271338	-0.618309	-0.994963	0.240042	-1.130343	-0.994963	0.166987	-1.130343	-0.819381	0.135676	-0.948011	-0.760854	0.083486	-0.720121	-0.702327	1.043638	-5.258972	-5.208173	0.000000	0.000000	20.459155	12.233274	0.829408	23.670797	-1.149308	48.936177	100.701181	80.204939	-2.143114	7.290851	-12.688646	-15.913613	-12.421678	122.843455	88.833998	-14.555782	-19.527398
1.220339	2.838038	-3.829813	99.446043	0.029993	1.009161	0.687934	-1.340277	1.187198	12.680618	1.067885	0.018638	23.653299	-12.521005	0.000000	3.007285	0.009141	-0.767631	7.510421	0.131082	31.934312	1.277606	0.000000	0.148540	-0.423824	-0.890632	0.275853	-0.563686	-0.946297	0.244036	-1.030485	-0.946297	0.169766	-1.030485	-0.779303	0.137934	-0.864262	-0.723639	0.084876	-0.656503	-0.667974	1.061005	-4.794381	-4.953429	0.000000	0.000000	20.353351	12.410430	0.914677	22.876026	-0.260703	47.326481	100.794634	80.961950	-2.972316	7.911706	-11.511034	-15.493720	-12.315679	122.881601	88.953704	-14.138946	-17.703370
1.237288	3.060534	-3.788476	99.419889	0.029066	1.009332	0.688552	-1.259184	1.364753	12.911628	0.986851	0.017224	23.740872	-12.649988	0.000000	3.039606	-0.163014	-0.584666	7.478647	0.130527	32.051796	0.968198	0.000000	0.151149	-0.376984	-0.843276	0.280698	-0.501388	-0.895981	0.248322	-0.916598	-0.895981	0.172748	-0.916598	-0.737866	0.140357	-0.768745	-0.685162	0.086366	-0.583948	-0.632457	1.079641	-4.264513	-4.690047	0.000000	0.000000	20.173749	12.550258	1.015857	21.846220	0.530934	45.240155	100.969097	81.624760	-3.701144	8.200187	-10.067379	-15.037203	-11.773171	122.868027	88.979076	-13.636474	-15.158993
1.254237	3.300136	-3.755490	99.400376	0.028063	1.009537	0.689339	-1.152665	1.563526	13.180950	0.909145	0.015868	23.787278	-12.897865	0.000000	3.090546	-0.343328	-0.358192	7.457173	0.130152	32.114679	0.608132	0.000000	0.154232	-0.325481	-0.798541	0.286424	-0.432890	-0.848450	0.253387	-0.791375	-0.848450	0.176271	-0.791375	-0.698724	0.143219	-0.663721	-0.648815	0.088128	-0.504170	-0.598906	1.101661	-3.681907	-4.441246	0.000000	0.000000	19.914927	12.601381	1.181993	20.647405	1.208922	42.789998	101.211252	82.263484	-4.308068	8.131850	-8.377546	-14.549877	-10.852593	122.767329	88.788745	-12.761411	-11.880290
1.271186	3.549404	-3.732286	99.378968	0.027014	1.009772	0.690276	-1.011186	1.771406	13.283935	0.867720	0.015145	23.847156	-12.968689	0.000000	3.156359	-0.524592	-0.095725	7.441395	0.129877	32.104459	0.193833	0.000000	0.157520	-0.270170	-0.757981	0.292530	-0.359326	-0.805355	0.258789	-0.656892	-0.805355	0.180029	-0.656892	-0.663234	0.146273	-0.550931	-0.615860	0.090007	-0.418494	-0.568486	1.125147	-3.056218	-4.215664	0.000000	0.000000	19.585741	12.541283	1.420328	19.346386	1.766220	40.094964	101.517951	82.828237	-4.804921	7.751191	-6.464123	-14.064678	-9.558431	122.539053	88.439176	-11.474219	-8.061489
1.288136	3.797729	-3.726139	99.360851	0.025951	1.010019	0.691355	-0.829855	1.980233	13.249116	0.871303	0.015207	23.886609	-12.938803	0.000000	3.239321	-0.698488	0.188781	7.426508	0.129617	32.015918	-0.234944	0.000000	0.161453	-0.212561	-0.726604	0.299834	-0.282706	-0.772017	0.265251	-0.516821	-0.772017	0.184524	-0.516821	-0.635778	0.149925	-0.433455	-0.590366	0.092254	-0.329257	-0.544953	1.153241	-2.404535	-4.041153	0.000000	0.000000	19.211501	12.375284	1.782000	18.022918	2.203851	37.266834	101.855595	83.315014	-5.191084	7.021370	-4.364830	-13.638097	-7.926598	122.155117	87.977580	-9.670446	-3.899806
1.305085	4.043825	-3.740701	99.330700	0.024910	1.010248	0.692577	-0.608310	2.196716	13.250815	0.918183	0.016025	23.853735	-13.035200	0.000000	3.344003	-0.867009	0.454887	7.421249	0.129525	31.857435	-0.641802	0.000000	0.165715	-0.153014	-0.709568	0.307749	-0.203509	-0.753916	0.272253	-0.372038	-0.753916	0.189395	-0.372038	-0.620872	0.153883	-0.312026	-0.576524	0.094689	-0.237019	-0.532176	1.183684	-1.730926	-3.946403	0.000000	0.000000	18.825976	12.160418	2.306745	16.778470	2.525273	34.419770	102.166153	83.650324	-5.539978	5.855418	-2.145020	-13.298745	-6.059551	121.612417	87.492777	-7.182666	0.371739
1.322034	4.275593	-3.783575	99.256332	0.023934	1.010435	0.693940	-0.323562	2.391432	12.972113	1.044438	0.018229	23.854333	-12.768678	0.000000	3.469909	-1.018168	0.684271	7.419103	0.129488	31.619723	-1.041508	0.000000	0.170243	-0.093284	-0.705971	0.316159	-0.124068	-0.750094	0.279693	-0.226811	-0.750094	0.194571	-0.226811	-0.617725	0.158088	-0.190225	-0.573602	0.097277	-0.144497	-0.529478	1.216032	-1.055248	-3.926400	0.000000	0.000000	18.500473	11.882247	2.930459	15.681289	2.748429	31.595450	102.393886	83.877622	-5.991409	4.194934	0.159362	-13.120225	-3.927005	120.911388	87.046827	-4.334286	4.357363
1.338983	4.483118	-3.861888	99.161857	0.022975	1.010542	0.695415	0.029627	2.552387	12.437301	1.257989	0.021956	23.906796	-12.223872	0.000000	3.619917	-1.136950	0.898433	7.411490	0.129355	31.309868	-1.426418	0.000000	0.175188	-0.033860	-0.729886	0.325342	-0.045034	-0.775504	0.287817	-0.082327	-0.775504	0.200223	-0.082327	-0.638650	0.162680	-0.069047	-0.593032	0.100103	-0.052449	-0.547414	1.251353	-0.383030	-4.059406	0.000000	0.000000	18.285386	11.562592	3.765744	14.795665	2.900658	28.809804	102.473539	84.108019	-6.497616	2.034996	2.489257	-13.097165	-1.663929	120.112169	86.676840	-1.069345	8.076148
1.355932	4.678293	-3.978840	99.032419	0.022072	1.010544	0.697003	0.459105	2.694315	11.719830	1.565336	0.027320	24.022824	-11.448403	0.000000	3.802399	-1.239554	1.115179	7.403332	0.129213	30.978283	-1.802615	0.000000	0.179891	0.025843	-0.766212	0.334075	0.034371	-0.814100	0.295542	0.062835	-0.814100	0.205597	0.062835	-0.670436	0.167046	0.052699	-0.622547	0.102790	0.040031	-0.574659	1.284941	0.292341	-4.261442	0.000000	0.000000	18.248245	11.279475	4.804563	14.122529	2.996539	26.003110	102.413367	84.404010	-7.230851	-0.646483	4.914740	-13.174270	0.783213	119.169656	86.386925	2.507979	11.373920
1.372881	4.829735	-4.133558	98.837649	0.021294	1.010452	0.698656	0.953121	2.786761	10.829296	1.954091	0.034105	24.220977	-10.387571	0.000000	4.007166	-1.299759	1.300050	7.385657	0.128904	30.642777	-2.164234	0.000000	0.184239	0.080023	-0.799208	0.342150	0.106430	-0.849158	0.302686	0.194567	-0.849158	0.210567	0.194567	-0.699307	0.171084	0.163182	-0.649356	0.105274	0.123955	-0.599406	1.316000	0.905233	-4.444955	0.000000	0.000000	18.419850	10.997595	5.831415	13.640518	3.027636	23.178427	102.224798	84.822887	-8.334054	-3.808969	7.442119	-13.313467	3.499352	118.056724	86.173236	5.914245	13.976869
